<svg id="Layer_1" data-name="Layer 1" xmlns="http://www.w3.org/2000/svg" viewBox="0 0 2367.24 2373.24"><defs><style>.cls-1{fill:none;stroke:#fff;stroke-miterlimit:10;stroke-width:100px;}.cls-2{fill:#fff;fill-rule:evenodd;}</style></defs><title>WhiteTransparentArtboard 1</title><circle class="cls-1" cx="1187.22" cy="1189.45" r="1117.56"/><path class="cls-2" d="M1248.35,201.22s23,1.94,34.35,3c81.79,7.43,160.91,26,238,54.07,100.37,36.51,192.23,88.51,277,153.18,27.53,21,54.37,43,79.79,66.58,7,6.55,8.18,10.4.74,17.86q-82,82.32-163.11,165.56c-7.37,7.55-11.63,8.61-20.37.76C1642.19,615,1584.86,574.53,1521.61,543c-76.58-38.14-156.66-64.14-242.4-73.59-127.92-14.11-252-1.5-371.7,46.56-76.05,30.53-144.4,73.58-205.87,128-75.14,66.56-133,145.89-174.78,236.58-45.6,99-73,202.48-66.21,313,12.11,197.6,2.43,395.41,4.65,593.11.27,23.91-1,48.18-2.67,73.48-8.58-1.88-12.3-8.38-16.51-13.4C354.59,1737.71,281.78,1617.86,238,1481.65a889.27,889.27,0,0,1-40.41-201.79c-10.74-133.74,5.64-264,46-391.81C277,782,326.36,684.1,392.94,595.18,442.1,529.52,499.6,471.8,564.15,420.91c96.52-76.1,204-131.44,319.22-173,67.36-24.28,136.75-38.21,208.05-43.61,12.29-.93,24.52-2.54,36.88-2.49a69.46,69.46,0,0,0,8.73-.63h111.32Z"/><path class="cls-2" d="M712.25,1675c0-121.27-1.09-242.57.48-363.82.73-56.06-.05-112.2,2.53-168.2,4.44-96.26,37.14-182.7,95.77-259,78.23-101.75,180.18-166.76,307.23-187,139.28-22.22,268.68,5.71,382.4,91.48,77.91,58.76,130.74,136.41,162.12,229,21.14,62.37,30.95,126.2,27.77,191.84-4.48,92.76-32.84,177.71-86.37,253.82-44.52,63.29-101.5,112.76-169.8,148.8-59.37,31.33-123.18,48.59-189.63,57.3-67.18,8.81-131.2-3.7-194.28-25.43-26.46-9.12-52.87-18.3-78.91-28.55-16-6.31-16.69-5.57-16.74,11.37-.37,121.28.13,242.56-1.49,363.82-.66,49.89-1.22,99.79-1.39,149.7,0,8.31-1.06,11.6-11.25,9.31-69-15.5-133.65-41.86-197.12-72.81-26.48-12.92-33.33-28.2-32.9-56.34,1.79-115.06.75-230.18.75-345.27ZM959.89,1178.2c-1.39,17.66,2.06,37.85,6,57.87,11.05,56.29,35.44,105,82.25,140.37,37.09,28,79.5,40.5,125.39,45.32,78.27,8.22,147.63-11.19,203.69-66.74,55.67-55.16,80.67-123,70.52-202-5.15-40.07-17.39-78-40.84-111.18-59.18-83.63-141.31-116.11-241.51-103.51C1048.8,953,957.54,1055.46,959.89,1178.2Z"/><path class="cls-2" d="M1205.63,2046.86c0-38.51.31-77-.21-115.51-.13-10.08,2-13.72,13.14-14.19,115.12-4.82,223.34-34.32,324.18-90.82a784,784,0,0,0,155.59-114.25c16-15.13,16.08-15.05,31.3.43,52.3,53.21,104.45,106.55,157.08,159.42,7.66,7.7,7.21,12.08-.22,19.44-138,136.74-300.31,229-491.62,267.41a981.75,981.75,0,0,1-172.2,19c-13.4.29-18.11-2.7-17.74-16.89,1-38,.33-76.05.33-114.09Z"/></svg>